<svg xmlns="http://www.w3.org/2000/svg" viewBox="0 0 640 640"><path fill="grey" d="M128 128c0-35.3 28.7-64 64-64h149.5c17 0 33.3 6.7 45.3 18.7l106.5 106.6c12 12 18.7 28.3 18.7 45.3V512c0 35.3-28.7 64-64 64H192c-35.3 0-64-28.7-64-64zm208-5.5V216c0 13.3 10.7 24 24 24h93.5zM400 384c0-53-43-96-96-96s-96 43-96 96 43 96 96 96c17.8 0 34.4-4.8 48.7-13.2l38.3 38.3c9.4 9.4 24.6 9.4 33.9 0s9.4-24.6 0-33.9l-38.3-38.3c8.5-14.3 13.3-31 13.3-48.9zm-96-48c26.5 0 48 21.5 48 48s-21.5 48-48 48-48-21.5-48-48 21.5-48 48-48"/></svg>
